<svg xmlns="http://www.w3.org/2000/svg" viewBox="0 0 760 220" width="760" height="220" role="img" aria-label="spec to prove to REST">
  <g transform="translate(82,62) scale(4)" fill="none" stroke="#0f172a" stroke-width="2" stroke-linecap="round" stroke-linejoin="round">
    <path d="M8 3H7a2 2 0 0 0-2 2v5a2 2 0 0 1-2 2 2 2 0 0 1 2 2v5c0 1.1.9 2 2 2h1"/>
    <path d="M16 21h1a2 2 0 0 0 2-2v-5c0-1.1.9-2 2-2a2 2 0 0 1-2-2V5a2 2 0 0 0-2-2h-1"/>
  </g>
  <g fill="none" stroke="#0f172a" stroke-width="8" stroke-linecap="round" stroke-linejoin="round">
    <path d="M362 66 V154"/>
    <path d="M362 110 H414"/>
  </g>
  <g transform="translate(582,62) scale(4)" fill="none" stroke="#0f172a" stroke-width="2" stroke-linecap="round" stroke-linejoin="round">
    <path d="M12.22 2h-.44a2 2 0 0 0-2 2v.18a2 2 0 0 1-1 1.73l-.43.25a2 2 0 0 1-2 0l-.15-.08a2 2 0 0 0-2.73.73l-.22.38a2 2 0 0 0 .73 2.73l.15.1a2 2 0 0 1 1 1.72v.51a2 2 0 0 1-1 1.74l-.15.09a2 2 0 0 0-.73 2.73l.22.38a2 2 0 0 0 2.73.73l.15-.08a2 2 0 0 1 2 0l.43.25a2 2 0 0 1 1 1.73V20a2 2 0 0 0 2 2h.44a2 2 0 0 0 2-2v-.18a2 2 0 0 1 1-1.73l.43-.25a2 2 0 0 1 2 0l.15.08a2 2 0 0 0 2.73-.73l.22-.39a2 2 0 0 0-.73-2.73l-.15-.08a2 2 0 0 1-1-1.74v-.5a2 2 0 0 1 1-1.74l.15-.09a2 2 0 0 0 .73-2.73l-.22-.38a2 2 0 0 0-2.73-.73l-.15.08a2 2 0 0 1-2 0l-.43-.25a2 2 0 0 1-1-1.73V4a2 2 0 0 0-2-2z"/>
    <circle cx="12" cy="12" r="2.2"/>
  </g>
  <g fill="none" stroke="#4f46e5" stroke-width="8" stroke-linecap="round" stroke-linejoin="round">
    <path d="M218 110 H306"/>
    <path d="M290 99 L308 110 L290 121"/>
    <path d="M458 110 H546"/>
    <path d="M530 99 L548 110 L530 121"/>
  </g>
</svg>
