<svg xmlns="http://www.w3.org/2000/svg" viewBox="0 0 1280 640" width="1280" height="640" role="img" aria-label="spec-to-rest social preview">
  <rect width="1280" height="640" fill="#0f172a"/>
  <g transform="translate(260,108)">
    <g transform="translate(82,62) scale(4)" fill="none" stroke="#f8fafc" stroke-width="2" stroke-linecap="round" stroke-linejoin="round">
      <path d="M8 3H7a2 2 0 0 0-2 2v5a2 2 0 0 1-2 2 2 2 0 0 1 2 2v5c0 1.1.9 2 2 2h1"/>
      <path d="M16 21h1a2 2 0 0 0 2-2v-5c0-1.1.9-2 2-2a2 2 0 0 1-2-2V5a2 2 0 0 0-2-2h-1"/>
    </g>
    <g fill="none" stroke="#f8fafc" stroke-width="8" stroke-linecap="round" stroke-linejoin="round">
      <path d="M362 66 V154"/>
      <path d="M362 110 H414"/>
    </g>
    <g transform="translate(582,62) scale(4)" fill="none" stroke="#f8fafc" stroke-width="2" stroke-linecap="round" stroke-linejoin="round">
      <path d="M12.22 2h-.44a2 2 0 0 0-2 2v.18a2 2 0 0 1-1 1.73l-.43.25a2 2 0 0 1-2 0l-.15-.08a2 2 0 0 0-2.73.73l-.22.38a2 2 0 0 0 .73 2.73l.15.1a2 2 0 0 1 1 1.72v.51a2 2 0 0 1-1 1.74l-.15.09a2 2 0 0 0-.73 2.73l.22.38a2 2 0 0 0 2.73.73l.15-.08a2 2 0 0 1 2 0l.43.25a2 2 0 0 1 1 1.73V20a2 2 0 0 0 2 2h.44a2 2 0 0 0 2-2v-.18a2 2 0 0 1 1-1.73l.43-.25a2 2 0 0 1 2 0l.15.08a2 2 0 0 0 2.73-.73l.22-.39a2 2 0 0 0-.73-2.73l-.15-.08a2 2 0 0 1-1-1.74v-.5a2 2 0 0 1 1-1.74l.15-.09a2 2 0 0 0 .73-2.73l-.22-.38a2 2 0 0 0-2.73-.73l-.15.08a2 2 0 0 1-2 0l-.43-.25a2 2 0 0 1-1-1.73V4a2 2 0 0 0-2-2z"/>
      <circle cx="12" cy="12" r="2.2"/>
    </g>
    <g fill="none" stroke="#818cf8" stroke-width="8" stroke-linecap="round" stroke-linejoin="round">
      <path d="M218 110 H306"/>
      <path d="M290 99 L308 110 L290 121"/>
      <path d="M458 110 H546"/>
      <path d="M530 99 L548 110 L530 121"/>
    </g>
  </g>
  <text x="640" y="456" text-anchor="middle" font-family="'DejaVu Sans Mono', 'Liberation Mono', monospace" font-size="92" font-weight="700" letter-spacing="-2" fill="#f8fafc">spec-to-rest</text>
  <text x="640" y="518" text-anchor="middle" font-family="'DejaVu Sans', 'Liberation Sans', sans-serif" font-size="33" fill="#cbd5e1">Compile formal specs into verified REST services</text>
  <text x="640" y="590" text-anchor="middle" font-family="'DejaVu Sans Mono', monospace" font-size="25" letter-spacing="2" fill="#64748b">Scala 3 &#183; Z3 &#183; Alloy &#183; Isabelle/HOL</text>
</svg>
