<svg class="railroad-diagram" width="573" height="362" viewBox="0 0 573 362">
<defs><style type="text/css">
svg.railroad-diagram { background-color: transparent; }
svg.railroad-diagram path { stroke-width: 2; stroke: currentColor; fill: none; }
svg.railroad-diagram text { font: 12px monospace; text-anchor: middle; fill: currentColor; }
svg.railroad-diagram text.diagram-text { font-size: 11px; }
svg.railroad-diagram rect { stroke-width: 2; stroke: currentColor; fill: none; }
svg.railroad-diagram rect.group-box { stroke: currentColor; stroke-dasharray: 10 5; fill: none; }
</style></defs>
<g transform="translate(.5 .5)">
<path d="M 20 21 v 20 m 10 -20 v 20 m -10 -10 h 20.5"></path>
<g>
<path d="M40 31h0"></path>
<path d="M532 31h0"></path>
<path d="M40 31h20"></path>
<g>
<path d="M60 31h128"></path>
<path d="M384 31h128"></path>
<rect x="188" y="20" width="196" height="22"></rect>
<text x="286" y="35">postfix (', ., &#91;&#93;, ())</text>
</g>
<path d="M512 31h20"></path>
<path d="M40 31a10 10 0 0 1 10 10v10a10 10 0 0 0 10 10"></path>
<g>
<path d="M60 61h112"></path>
<path d="M400 61h112"></path>
<rect x="172" y="50" width="228" height="22"></rect>
<text x="286" y="65">with-update (with { ... })</text>
</g>
<path d="M512 61a10 10 0 0 0 10 -10v-10a10 10 0 0 1 10 -10"></path>
<path d="M40 31a10 10 0 0 1 10 10v40a10 10 0 0 0 10 10"></path>
<g>
<path d="M60 91h128"></path>
<path d="M384 91h128"></path>
<rect x="188" y="80" width="196" height="22"></rect>
<text x="286" y="95">unary prefix (#, -, ^)</text>
</g>
<path d="M512 91a10 10 0 0 0 10 -10v-40a10 10 0 0 1 10 -10"></path>
<path d="M40 31a10 10 0 0 1 10 10v70a10 10 0 0 0 10 10"></path>
<g>
<path d="M60 121h132"></path>
<path d="M380 121h132"></path>
<rect x="192" y="110" width="188" height="22"></rect>
<text x="286" y="125">multiplicative (&#42;, /)</text>
</g>
<path d="M512 121a10 10 0 0 0 10 -10v-70a10 10 0 0 1 10 -10"></path>
<path d="M40 31a10 10 0 0 1 10 10v100a10 10 0 0 0 10 10"></path>
<g>
<path d="M60 151h112"></path>
<path d="M400 151h112"></path>
<rect x="172" y="140" width="228" height="22"></rect>
<text x="286" y="155">additive (+, -, ++, --, &#38;)</text>
</g>
<path d="M512 151a10 10 0 0 0 10 -10v-100a10 10 0 0 1 10 -10"></path>
<path d="M40 31a10 10 0 0 1 10 10v130a10 10 0 0 0 10 10"></path>
<g>
<path d="M60 181h0"></path>
<path d="M512 181h0"></path>
<rect x="60" y="170" width="452" height="22"></rect>
<text x="286" y="185">relational (&#60;, &#60;=, >, >=, in, not in, subset, matches)</text>
</g>
<path d="M512 181a10 10 0 0 0 10 -10v-130a10 10 0 0 1 10 -10"></path>
<path d="M40 31a10 10 0 0 1 10 10v160a10 10 0 0 0 10 10"></path>
<g>
<path d="M60 211h152"></path>
<path d="M360 211h152"></path>
<rect x="212" y="200" width="148" height="22"></rect>
<text x="286" y="215">equality (=, !=)</text>
</g>
<path d="M512 211a10 10 0 0 0 10 -10v-160a10 10 0 0 1 10 -10"></path>
<path d="M40 31a10 10 0 0 1 10 10v190a10 10 0 0 0 10 10"></path>
<g>
<path d="M60 241h172"></path>
<path d="M340 241h172"></path>
<rect x="232" y="230" width="108" height="22"></rect>
<text x="286" y="245">logical not</text>
</g>
<path d="M512 241a10 10 0 0 0 10 -10v-190a10 10 0 0 1 10 -10"></path>
<path d="M40 31a10 10 0 0 1 10 10v220a10 10 0 0 0 10 10"></path>
<g>
<path d="M60 271h172"></path>
<path d="M340 271h172"></path>
<rect x="232" y="260" width="108" height="22"></rect>
<text x="286" y="275">logical and</text>
</g>
<path d="M512 271a10 10 0 0 0 10 -10v-220a10 10 0 0 1 10 -10"></path>
<path d="M40 31a10 10 0 0 1 10 10v250a10 10 0 0 0 10 10"></path>
<g>
<path d="M60 301h176"></path>
<path d="M336 301h176"></path>
<rect x="236" y="290" width="100" height="22"></rect>
<text x="286" y="305">logical or</text>
</g>
<path d="M512 301a10 10 0 0 0 10 -10v-250a10 10 0 0 1 10 -10"></path>
<path d="M40 31a10 10 0 0 1 10 10v280a10 10 0 0 0 10 10"></path>
<g>
<path d="M60 331h132"></path>
<path d="M380 331h132"></path>
<rect x="192" y="320" width="188" height="22"></rect>
<text x="286" y="335">implication (=>, &#60;=>)</text>
</g>
<path d="M512 331a10 10 0 0 0 10 -10v-280a10 10 0 0 1 10 -10"></path>
</g>
<path d="M 532 31 h 20 m -10 -10 v 20 m 10 -20 v 20"></path>
</g>
</svg>
